<svg xmlns="http://www.w3.org/2000/svg" xmlns:xlink="http://www.w3.org/1999/xlink" width="500" zoomAndPan="magnify" viewBox="0 0 375 374.999991" height="500" preserveAspectRatio="xMidYMid meet" version="1.0"><defs><g/><clipPath id="9244dd8e53"><path d="M 107.757812 84.972656 L 275.757812 84.972656 L 275.757812 252.972656 L 107.757812 252.972656 Z M 107.757812 84.972656 " clip-rule="nonzero"/></clipPath></defs><g clip-path="url(#9244dd8e53)"><path fill="#3b3937" d="M 143.886719 84.972656 L 275.890625 84.972656 L 275.890625 253.105469 L 107.757812 253.105469 L 107.757812 227.707031 C 108.195312 228.265625 108.636719 228.824219 109.082031 229.378906 L 109.082031 251.777344 L 274.558594 251.777344 L 274.558594 86.300781 L 143.117188 86.300781 C 143.371094 85.871094 143.617188 85.445312 143.863281 85.015625 Z M 143.886719 84.972656 " fill-opacity="1" fill-rule="evenodd"/></g><g fill="#3b3937" fill-opacity="1"><g transform="translate(178.558454, 213.959626)"><g><path d="M 70.140625 -8.859375 C 70.140625 -6.296875 70.910156 -4.304688 72.453125 -2.890625 C 73.992188 -1.484375 76.664062 -0.519531 80.46875 0 L 48.984375 0 C 52.796875 -0.519531 55.46875 -1.484375 57 -2.890625 C 58.539062 -4.304688 59.3125 -6.296875 59.3125 -8.859375 L 59.3125 -34.71875 L 22.140625 -34.71875 L 22.140625 -8.859375 C 22.140625 -6.296875 22.910156 -4.304688 24.453125 -2.890625 C 25.992188 -1.484375 28.664062 -0.519531 32.46875 0 L 0.984375 0 C 4.785156 -0.519531 7.457031 -1.484375 9 -2.890625 C 10.539062 -4.304688 11.3125 -6.296875 11.3125 -8.859375 L 11.3125 -65.90625 C 11.3125 -68.46875 10.539062 -70.453125 9 -71.859375 C 7.457031 -73.273438 4.785156 -74.242188 0.984375 -74.765625 L 32.46875 -74.765625 C 28.664062 -74.242188 25.992188 -73.273438 24.453125 -71.859375 C 22.910156 -70.453125 22.140625 -68.46875 22.140625 -65.90625 L 22.140625 -35.703125 L 59.3125 -35.703125 L 59.3125 -65.90625 C 59.3125 -68.46875 58.539062 -70.453125 57 -71.859375 C 55.46875 -73.273438 52.796875 -74.242188 48.984375 -74.765625 L 80.46875 -74.765625 C 76.664062 -74.242188 73.992188 -73.273438 72.453125 -71.859375 C 70.910156 -70.453125 70.140625 -68.46875 70.140625 -65.90625 Z M 70.140625 -8.859375 "/></g></g></g><g fill="#3b3937" fill-opacity="1"><g transform="translate(117.250893, 179.853394)"><g><path d="M 48.296875 -23.90625 L 17.3125 -23.90625 L 12.78125 -12.296875 C 12 -10.265625 11.609375 -8.523438 11.609375 -7.078125 C 11.609375 -4.722656 12.59375 -3.050781 14.5625 -2.0625 C 16.53125 -1.082031 19.1875 -0.394531 22.53125 0 L -2.453125 0 C 1.015625 -0.519531 3.878906 -1.765625 6.140625 -3.734375 C 8.410156 -5.703125 10.363281 -8.785156 12 -12.984375 L 33.453125 -68.078125 C 34.765625 -69.316406 35.894531 -70.507812 36.84375 -71.65625 C 37.789062 -72.8125 38.757812 -74.175781 39.75 -75.75 L 65.71875 -7.765625 C 66.175781 -6.585938 66.679688 -5.570312 67.234375 -4.71875 C 67.796875 -3.863281 68.484375 -3.125 69.296875 -2.5 C 70.117188 -1.882812 71.101562 -1.378906 72.25 -0.984375 C 73.40625 -0.585938 74.800781 -0.257812 76.4375 0 L 45.34375 0 C 47.84375 -0.394531 49.976562 -1.015625 51.75 -1.859375 C 53.519531 -2.710938 54.40625 -4.160156 54.40625 -6.203125 C 54.40625 -7.316406 54.175781 -8.460938 53.71875 -9.640625 Z M 17.703125 -24.890625 L 47.90625 -24.890625 L 32.953125 -64.046875 Z M 17.703125 -24.890625 "/></g></g></g><g fill="#3b3937" fill-opacity="1"><g transform="translate(129.907831, 244.866647)"><g><path d="M 3.6875 -2.078125 C 3.6875 -1.773438 3.632812 -1.5 3.53125 -1.25 C 3.414062 -0.988281 3.257812 -0.769531 3.0625 -0.59375 C 2.875 -0.40625 2.648438 -0.257812 2.390625 -0.15625 C 2.128906 -0.0507812 1.847656 0 1.546875 0 L 0.453125 0 L 0.453125 -4.171875 L 1.546875 -4.171875 C 1.847656 -4.171875 2.128906 -4.117188 2.390625 -4.015625 C 2.648438 -3.910156 2.875 -3.765625 3.0625 -3.578125 C 3.257812 -3.390625 3.414062 -3.171875 3.53125 -2.921875 C 3.632812 -2.660156 3.6875 -2.378906 3.6875 -2.078125 Z M 3.28125 -2.078125 C 3.28125 -2.554688 3.113281 -2.953125 2.78125 -3.265625 C 2.445312 -3.578125 2.039062 -3.734375 1.5625 -3.734375 L 0.890625 -3.734375 L 0.890625 -0.421875 L 1.5625 -0.421875 C 2.039062 -0.421875 2.445312 -0.578125 2.78125 -0.890625 C 3.113281 -1.210938 3.28125 -1.609375 3.28125 -2.078125 Z M 3.28125 -2.078125 "/></g></g></g><g fill="#3b3937" fill-opacity="1"><g transform="translate(138.57435, 244.866647)"><g><path d="M 0.890625 0 L 0.453125 0 L 0.453125 -4.171875 L 0.890625 -4.171875 Z M 0.890625 0 "/></g></g></g><g fill="#3b3937" fill-opacity="1"><g transform="translate(144.621313, 244.866647)"><g><path d="M 4.5625 -1.953125 L 4.53125 -1.6875 C 4.4375 -1.1875 4.1875 -0.769531 3.78125 -0.4375 C 3.375 -0.113281 2.921875 0.046875 2.421875 0.046875 C 2.128906 0.046875 1.851562 -0.0078125 1.59375 -0.125 C 1.320312 -0.226562 1.09375 -0.378906 0.90625 -0.578125 C 0.707031 -0.773438 0.554688 -1.003906 0.453125 -1.265625 C 0.335938 -1.523438 0.28125 -1.800781 0.28125 -2.09375 C 0.28125 -2.394531 0.335938 -2.675781 0.453125 -2.9375 C 0.554688 -3.195312 0.707031 -3.425781 0.90625 -3.625 C 1.09375 -3.8125 1.320312 -3.960938 1.59375 -4.078125 C 1.851562 -4.191406 2.113281 -4.25 2.375 -4.25 C 2.875 -4.25 3.3125 -4.109375 3.6875 -3.828125 C 4.070312 -3.546875 4.335938 -3.171875 4.484375 -2.703125 L 4.03125 -2.703125 C 3.894531 -3.046875 3.679688 -3.316406 3.390625 -3.515625 C 3.097656 -3.710938 2.773438 -3.8125 2.421875 -3.8125 C 1.941406 -3.8125 1.535156 -3.644531 1.203125 -3.3125 C 0.867188 -2.976562 0.703125 -2.570312 0.703125 -2.09375 C 0.703125 -1.625 0.867188 -1.222656 1.203125 -0.890625 C 1.535156 -0.546875 1.941406 -0.375 2.421875 -0.375 C 2.796875 -0.375 3.140625 -0.484375 3.453125 -0.703125 C 3.753906 -0.921875 3.96875 -1.210938 4.09375 -1.578125 L 2.40625 -1.578125 L 2.40625 -1.953125 Z M 4.5625 -1.953125 "/></g></g></g><g fill="#3b3937" fill-opacity="1"><g transform="translate(154.163051, 244.866647)"><g><path d="M 0.890625 0 L 0.453125 0 L 0.453125 -4.171875 L 0.890625 -4.171875 Z M 0.890625 0 "/></g></g></g><g fill="#3b3937" fill-opacity="1"><g transform="translate(160.210014, 244.866647)"><g><path d="M 0.125 -3.78125 L 0.125 -4.171875 L 2.578125 -4.171875 L 2.578125 -3.78125 L 1.5625 -3.78125 L 1.5625 -0.015625 L 1.140625 -0.015625 L 1.140625 -3.78125 Z M 0.125 -3.78125 "/></g></g></g><g fill="#3b3937" fill-opacity="1"><g transform="translate(167.603482, 244.866647)"><g><path d="M 1.140625 -1.53125 L 2.640625 -1.53125 L 1.890625 -3.453125 Z M 3.71875 0 L 3.25 0 L 2.8125 -1.140625 L 0.96875 -1.140625 L 0.53125 0 L 0.0625 0 L 1.890625 -4.453125 Z M 3.71875 0 "/></g></g></g><g fill="#3b3937" fill-opacity="1"><g transform="translate(176.080265, 244.866647)"><g><path d="M 0.890625 -0.421875 L 2.375 -0.421875 L 2.375 0 L 0.453125 0 L 0.453125 -4.171875 L 0.890625 -4.171875 Z M 0.890625 -0.421875 "/></g></g></g><g fill="#3b3937" fill-opacity="1"><g transform="translate(183.277879, 244.866647)"><g/></g></g><g fill="#3b3937" fill-opacity="1"><g transform="translate(189.630867, 244.866647)"><g><path d="M 4.296875 0 L 3.65625 -2.96875 L 2.40625 0.25 L 1.140625 -2.96875 L 0.5 0 L 0.0625 0 L 1.03125 -4.4375 L 2.40625 -0.875 L 3.765625 -4.4375 L 4.734375 0 Z M 4.296875 0 "/></g></g></g><g fill="#3b3937" fill-opacity="1"><g transform="translate(199.123647, 244.866647)"><g><path d="M 1.140625 -1.53125 L 2.640625 -1.53125 L 1.890625 -3.453125 Z M 3.71875 0 L 3.25 0 L 2.8125 -1.140625 L 0.96875 -1.140625 L 0.53125 0 L 0.0625 0 L 1.890625 -4.453125 Z M 3.71875 0 "/></g></g></g><g fill="#3b3937" fill-opacity="1"><g transform="translate(207.600431, 244.866647)"><g><path d="M 0.890625 -2.0625 L 1.859375 -2.0625 C 2.097656 -2.0625 2.296875 -2.140625 2.453125 -2.296875 C 2.609375 -2.460938 2.6875 -2.671875 2.6875 -2.921875 C 2.6875 -3.160156 2.613281 -3.359375 2.46875 -3.515625 C 2.3125 -3.671875 2.109375 -3.75 1.859375 -3.75 L 0.890625 -3.75 Z M 3.125 -2.90625 C 3.125 -2.539062 2.992188 -2.238281 2.734375 -2 C 2.503906 -1.789062 2.226562 -1.675781 1.90625 -1.65625 L 3.1875 0 L 2.609375 0 L 1.390625 -1.640625 L 0.890625 -1.640625 L 0.890625 0 L 0.453125 0 L 0.453125 -4.171875 L 1.796875 -4.171875 C 2.171875 -4.171875 2.484375 -4.050781 2.734375 -3.8125 C 2.992188 -3.570312 3.125 -3.269531 3.125 -2.90625 Z M 3.125 -2.90625 "/></g></g></g><g fill="#3b3937" fill-opacity="1"><g transform="translate(215.630421, 244.866647)"><g><path d="M 0.890625 0 L 0.453125 0 L 0.453125 -4.171875 L 0.890625 -4.171875 L 0.890625 -2.21875 L 2.296875 -4.171875 L 2.84375 -4.171875 L 1.3125 -2.078125 L 2.84375 0 L 2.296875 0 L 0.890625 -1.953125 Z M 0.890625 0 "/></g></g></g><g fill="#3b3937" fill-opacity="1"><g transform="translate(223.231978, 244.866647)"><g><path d="M 2.9375 0 L 0.453125 0 L 0.453125 -4.171875 L 2.9375 -4.171875 L 2.9375 -3.765625 L 0.890625 -3.765625 L 0.890625 -2.28125 L 2.875 -2.28125 L 2.875 -1.875 L 0.890625 -1.875 L 0.890625 -0.390625 L 2.9375 -0.390625 Z M 2.9375 0 "/></g></g></g><g fill="#3b3937" fill-opacity="1"><g transform="translate(231.32317, 244.866647)"><g><path d="M 0.125 -3.78125 L 0.125 -4.171875 L 2.578125 -4.171875 L 2.578125 -3.78125 L 1.5625 -3.78125 L 1.5625 -0.015625 L 1.140625 -0.015625 L 1.140625 -3.78125 Z M 0.125 -3.78125 "/></g></g></g><g fill="#3b3937" fill-opacity="1"><g transform="translate(238.716638, 244.866647)"><g><path d="M 2.9375 0 L 0.453125 0 L 0.453125 -4.171875 L 2.9375 -4.171875 L 2.9375 -3.765625 L 0.890625 -3.765625 L 0.890625 -2.28125 L 2.875 -2.28125 L 2.875 -1.875 L 0.890625 -1.875 L 0.890625 -0.390625 L 2.9375 -0.390625 Z M 2.9375 0 "/></g></g></g><g fill="#3b3937" fill-opacity="1"><g transform="translate(246.80783, 244.866647)"><g><path d="M 0.890625 -2.0625 L 1.859375 -2.0625 C 2.097656 -2.0625 2.296875 -2.140625 2.453125 -2.296875 C 2.609375 -2.460938 2.6875 -2.671875 2.6875 -2.921875 C 2.6875 -3.160156 2.613281 -3.359375 2.46875 -3.515625 C 2.3125 -3.671875 2.109375 -3.75 1.859375 -3.75 L 0.890625 -3.75 Z M 3.125 -2.90625 C 3.125 -2.539062 2.992188 -2.238281 2.734375 -2 C 2.503906 -1.789062 2.226562 -1.675781 1.90625 -1.65625 L 3.1875 0 L 2.609375 0 L 1.390625 -1.640625 L 0.890625 -1.640625 L 0.890625 0 L 0.453125 0 L 0.453125 -4.171875 L 1.796875 -4.171875 C 2.171875 -4.171875 2.484375 -4.050781 2.734375 -3.8125 C 2.992188 -3.570312 3.125 -3.269531 3.125 -2.90625 Z M 3.125 -2.90625 "/></g></g></g><g fill="#e2ded0" fill-opacity="1"><g transform="translate(117.523162, 231.170291)"><g><path d="M 16.71875 -3.921875 C 16.226562 -3.191406 15.71875 -2.539062 15.1875 -1.96875 C 14.664062 -1.394531 14.117188 -0.945312 13.546875 -0.625 C 12.984375 -0.300781 12.398438 -0.140625 11.796875 -0.140625 C 11.148438 -0.140625 10.472656 -0.242188 9.765625 -0.453125 C 9.054688 -0.660156 8.335938 -0.941406 7.609375 -1.296875 C 6.890625 -1.660156 6.1875 -2.070312 5.5 -2.53125 C 4.820312 -2.988281 4.1875 -3.46875 3.59375 -3.96875 C 3.007812 -4.476562 2.492188 -4.976562 2.046875 -5.46875 C 1.609375 -5.96875 1.273438 -6.4375 1.046875 -6.875 C 0.578125 -7.71875 0.515625 -8.394531 0.859375 -8.90625 C 1.265625 -9.53125 2.1875 -9.785156 3.625 -9.671875 C 4.550781 -9.609375 5.535156 -9.457031 6.578125 -9.21875 C 7.628906 -8.988281 8.710938 -8.703125 9.828125 -8.359375 C 10.941406 -8.015625 12.054688 -7.640625 13.171875 -7.234375 C 14.285156 -6.835938 15.375 -6.4375 16.4375 -6.03125 C 16.613281 -5.957031 16.789062 -5.953125 16.96875 -6.015625 C 17.144531 -6.085938 17.28125 -6.210938 17.375 -6.390625 C 17.75 -7.109375 18.113281 -7.890625 18.46875 -8.734375 C 19.601562 -11.367188 20.550781 -14.066406 21.3125 -16.828125 C 21.351562 -16.984375 21.457031 -17.066406 21.625 -17.078125 C 21.78125 -17.097656 21.890625 -17.03125 21.953125 -16.875 C 21.992188 -16.769531 22.023438 -16.5625 22.046875 -16.25 C 22.066406 -15.9375 22.082031 -15.488281 22.09375 -14.90625 C 22.101562 -14.320312 22.113281 -13.554688 22.125 -12.609375 C 22.125 -12.109375 22.128906 -11.515625 22.140625 -10.828125 C 22.148438 -10.148438 22.160156 -9.429688 22.171875 -8.671875 C 22.179688 -7.921875 22.203125 -7.164062 22.234375 -6.40625 C 22.273438 -5.644531 22.320312 -4.925781 22.375 -4.25 C 22.394531 -3.914062 22.566406 -3.695312 22.890625 -3.59375 C 23.867188 -3.207031 24.882812 -2.972656 25.9375 -2.890625 C 26.019531 -2.890625 26.097656 -2.859375 26.171875 -2.796875 C 26.242188 -2.722656 26.285156 -2.644531 26.296875 -2.5625 C 26.296875 -2.46875 26.257812 -2.382812 26.1875 -2.3125 C 26.125 -2.25 26.046875 -2.21875 25.953125 -2.21875 C 25.003906 -2.257812 24.085938 -2.445312 23.203125 -2.78125 C 23.035156 -2.832031 22.882812 -2.796875 22.75 -2.671875 C 22.613281 -2.566406 22.5625 -2.425781 22.59375 -2.25 C 22.65625 -1.851562 22.726562 -1.53125 22.8125 -1.28125 C 22.90625 -1.039062 23.007812 -0.898438 23.125 -0.859375 C 23.207031 -0.816406 23.269531 -0.753906 23.3125 -0.671875 C 23.351562 -0.597656 23.359375 -0.515625 23.328125 -0.421875 C 23.296875 -0.335938 23.238281 -0.273438 23.15625 -0.234375 C 23.082031 -0.191406 23 -0.179688 22.90625 -0.203125 C 22.40625 -0.367188 22.050781 -1.242188 21.84375 -2.828125 C 21.800781 -3.117188 21.632812 -3.316406 21.34375 -3.421875 C 20.914062 -3.578125 20.46875 -3.742188 20 -3.921875 C 19.53125 -4.097656 19.046875 -4.285156 18.546875 -4.484375 C 18.253906 -4.546875 18.007812 -4.597656 17.8125 -4.640625 C 17.613281 -4.679688 17.429688 -4.65625 17.265625 -4.5625 C 17.097656 -4.46875 16.914062 -4.253906 16.71875 -3.921875 Z M 3 -9.03125 C 2.15625 -9.03125 1.628906 -8.867188 1.421875 -8.546875 C 1.304688 -8.367188 1.285156 -8.148438 1.359375 -7.890625 C 1.429688 -7.640625 1.523438 -7.40625 1.640625 -7.1875 C 1.878906 -6.75 2.21875 -6.285156 2.65625 -5.796875 C 3.101562 -5.316406 3.613281 -4.835938 4.1875 -4.359375 C 4.757812 -3.878906 5.367188 -3.425781 6.015625 -3 C 6.671875 -2.582031 7.335938 -2.207031 8.015625 -1.875 C 8.691406 -1.550781 9.351562 -1.289062 10 -1.09375 C 10.644531 -0.90625 11.242188 -0.8125 11.796875 -0.8125 C 12.503906 -0.8125 13.226562 -1.113281 13.96875 -1.71875 C 14.71875 -2.332031 15.46875 -3.226562 16.21875 -4.40625 C 16.351562 -4.601562 16.382812 -4.816406 16.3125 -5.046875 C 16.238281 -5.273438 16.085938 -5.4375 15.859375 -5.53125 C 14.835938 -5.914062 13.785156 -6.300781 12.703125 -6.6875 C 11.628906 -7.070312 10.5625 -7.425781 9.5 -7.75 C 8.4375 -8.070312 7.398438 -8.34375 6.390625 -8.5625 C 5.390625 -8.789062 4.453125 -8.9375 3.578125 -9 C 3.367188 -9.019531 3.175781 -9.03125 3 -9.03125 Z M 21.171875 -13.984375 C 20.265625 -11.066406 19.101562 -8.253906 17.6875 -5.546875 L 18.203125 -5.34375 C 18.648438 -5.164062 19.09375 -4.992188 19.53125 -4.828125 C 19.96875 -4.660156 20.390625 -4.5 20.796875 -4.34375 C 21.003906 -4.269531 21.203125 -4.300781 21.390625 -4.4375 C 21.566406 -4.5625 21.644531 -4.738281 21.625 -4.96875 C 21.570312 -5.9375 21.53125 -7.054688 21.5 -8.328125 C 21.46875 -9.597656 21.445312 -11.023438 21.4375 -12.609375 C 21.4375 -12.835938 21.4375 -13.054688 21.4375 -13.265625 C 21.4375 -13.484375 21.429688 -13.703125 21.421875 -13.921875 C 21.421875 -14.066406 21.390625 -14.144531 21.328125 -14.15625 C 21.273438 -14.175781 21.222656 -14.117188 21.171875 -13.984375 Z M 21.171875 -13.984375 "/></g></g></g><g fill="#e2ded0" fill-opacity="1"><g transform="translate(144.485743, 231.170291)"><g><path d="M 8.90625 -3.328125 C 8.96875 -3.253906 9 -3.171875 9 -3.078125 C 9 -2.984375 8.96875 -2.898438 8.90625 -2.828125 C 8.875 -2.804688 8.742188 -2.691406 8.515625 -2.484375 C 8.285156 -2.273438 7.984375 -2.023438 7.609375 -1.734375 C 7.242188 -1.453125 6.820312 -1.171875 6.34375 -0.890625 C 5.875 -0.609375 5.378906 -0.367188 4.859375 -0.171875 C 4.335938 0.015625 3.8125 0.109375 3.28125 0.109375 C 2.96875 0.109375 2.660156 0.0625 2.359375 -0.03125 C 1.796875 -0.1875 1.328125 -0.519531 0.953125 -1.03125 C 0.578125 -1.550781 0.300781 -2.21875 0.125 -3.03125 C 0.113281 -3.070312 0.109375 -3.113281 0.109375 -3.15625 C 0.0234375 -3.582031 -0.0234375 -4.007812 -0.046875 -4.4375 C -0.078125 -5 -0.0664062 -5.582031 -0.015625 -6.1875 C 0.0234375 -6.800781 0.101562 -7.40625 0.21875 -8 C 0.332031 -8.59375 0.476562 -9.140625 0.65625 -9.640625 C 0.832031 -10.148438 1.03125 -10.578125 1.25 -10.921875 C 1.46875 -11.265625 1.710938 -11.5 1.984375 -11.625 C 2.160156 -11.695312 2.347656 -11.707031 2.546875 -11.65625 C 2.742188 -11.601562 2.90625 -11.5 3.03125 -11.34375 C 3.21875 -11.144531 3.316406 -10.859375 3.328125 -10.484375 C 3.335938 -10.109375 3.289062 -9.675781 3.1875 -9.1875 C 3.09375 -8.707031 2.953125 -8.203125 2.765625 -7.671875 C 2.585938 -7.140625 2.390625 -6.613281 2.171875 -6.09375 C 1.953125 -5.570312 1.738281 -5.085938 1.53125 -4.640625 C 1.332031 -4.191406 1.160156 -3.816406 1.015625 -3.515625 C 0.867188 -3.234375 0.84375 -2.945312 0.9375 -2.65625 C 1.0625 -2.207031 1.25 -1.796875 1.5 -1.421875 C 1.757812 -1.054688 2.109375 -0.804688 2.546875 -0.671875 C 2.953125 -0.546875 3.375 -0.519531 3.8125 -0.59375 C 4.257812 -0.675781 4.703125 -0.816406 5.140625 -1.015625 C 5.578125 -1.222656 5.988281 -1.453125 6.375 -1.703125 C 6.769531 -1.960938 7.117188 -2.210938 7.421875 -2.453125 C 7.722656 -2.703125 7.960938 -2.90625 8.140625 -3.0625 C 8.316406 -3.226562 8.410156 -3.316406 8.421875 -3.328125 C 8.492188 -3.390625 8.578125 -3.421875 8.671875 -3.421875 C 8.753906 -3.421875 8.832031 -3.390625 8.90625 -3.328125 Z M 0.671875 -4.625 C 0.679688 -4.570312 0.710938 -4.53125 0.765625 -4.5 C 0.816406 -4.476562 0.859375 -4.492188 0.890625 -4.546875 C 1.003906 -4.734375 1.132812 -5.003906 1.28125 -5.359375 C 1.425781 -5.710938 1.578125 -6.113281 1.734375 -6.5625 C 1.890625 -7.007812 2.03125 -7.460938 2.15625 -7.921875 C 2.289062 -8.390625 2.398438 -8.832031 2.484375 -9.25 C 2.566406 -9.664062 2.617188 -10.019531 2.640625 -10.3125 C 2.660156 -10.601562 2.625 -10.789062 2.53125 -10.875 C 2.457031 -10.96875 2.382812 -11.015625 2.3125 -11.015625 C 2.289062 -11.015625 2.265625 -11.007812 2.234375 -11 C 2.109375 -10.9375 1.960938 -10.75 1.796875 -10.4375 C 1.628906 -10.125 1.460938 -9.726562 1.296875 -9.25 C 1.128906 -8.78125 0.984375 -8.269531 0.859375 -7.71875 C 0.734375 -7.164062 0.648438 -6.617188 0.609375 -6.078125 C 0.566406 -5.546875 0.585938 -5.0625 0.671875 -4.625 Z M 0.671875 -4.625 "/></g></g></g><g fill="#e2ded0" fill-opacity="1"><g transform="translate(153.011821, 231.170291)"><g><path d="M 10.8125 -3.140625 C 10.875 -3.078125 10.90625 -2.992188 10.90625 -2.890625 C 10.894531 -2.796875 10.859375 -2.722656 10.796875 -2.671875 C 10.765625 -2.640625 10.632812 -2.53125 10.40625 -2.34375 C 10.175781 -2.15625 9.875 -1.929688 9.5 -1.671875 C 9.125 -1.410156 8.703125 -1.15625 8.234375 -0.90625 C 7.765625 -0.664062 7.269531 -0.472656 6.75 -0.328125 C 6.226562 -0.179688 5.707031 -0.125 5.1875 -0.15625 C 4.664062 -0.1875 4.164062 -0.359375 3.6875 -0.671875 C 3.320312 -0.898438 3.035156 -1.203125 2.828125 -1.578125 C 2.765625 -1.679688 2.664062 -1.738281 2.53125 -1.75 C 2.414062 -1.757812 2.320312 -1.710938 2.25 -1.609375 C 2.0625 -1.316406 1.851562 -1.039062 1.625 -0.78125 C 1.40625 -0.53125 1.175781 -0.328125 0.9375 -0.171875 C 0.707031 -0.0234375 0.484375 0.0507812 0.265625 0.0625 C 0.109375 0.0507812 -0.0351562 0.00390625 -0.171875 -0.078125 C -0.304688 -0.171875 -0.40625 -0.289062 -0.46875 -0.4375 C -0.726562 -1.082031 -0.6875 -1.710938 -0.34375 -2.328125 C -0.0625 -2.921875 0.332031 -3.425781 0.84375 -3.84375 C 1.363281 -4.257812 1.945312 -4.546875 2.59375 -4.703125 C 2.71875 -4.742188 2.820312 -4.71875 2.90625 -4.625 C 3 -4.519531 3.03125 -4.40625 3 -4.28125 C 2.957031 -4.15625 2.875 -4.078125 2.75 -4.046875 C 2.195312 -3.921875 1.707031 -3.679688 1.28125 -3.328125 C 0.851562 -2.984375 0.515625 -2.554688 0.265625 -2.046875 C 0.0234375 -1.628906 -0.015625 -1.195312 0.140625 -0.75 C 0.191406 -0.664062 0.234375 -0.625 0.265625 -0.625 C 0.335938 -0.570312 0.453125 -0.625 0.609375 -0.78125 C 0.765625 -0.9375 0.941406 -1.160156 1.140625 -1.453125 C 1.335938 -1.753906 1.53125 -2.082031 1.71875 -2.4375 C 1.914062 -2.789062 2.09375 -3.132812 2.25 -3.46875 C 2.320312 -3.625 2.441406 -3.6875 2.609375 -3.65625 C 2.773438 -3.632812 2.867188 -3.539062 2.890625 -3.375 C 2.890625 -3.363281 2.90625 -3.28125 2.9375 -3.125 C 2.976562 -2.96875 3.039062 -2.769531 3.125 -2.53125 C 3.21875 -2.300781 3.335938 -2.066406 3.484375 -1.828125 C 3.640625 -1.585938 3.832031 -1.390625 4.0625 -1.234375 C 4.457031 -0.972656 4.882812 -0.832031 5.34375 -0.8125 C 5.8125 -0.800781 6.273438 -0.867188 6.734375 -1.015625 C 7.203125 -1.171875 7.648438 -1.363281 8.078125 -1.59375 C 8.503906 -1.820312 8.882812 -2.054688 9.21875 -2.296875 C 9.5625 -2.546875 9.832031 -2.75 10.03125 -2.90625 C 10.226562 -3.070312 10.332031 -3.160156 10.34375 -3.171875 C 10.40625 -3.234375 10.484375 -3.257812 10.578125 -3.25 C 10.671875 -3.25 10.75 -3.210938 10.8125 -3.140625 Z M 10.8125 -3.140625 "/></g></g></g><g fill="#e2ded0" fill-opacity="1"><g transform="translate(163.465645, 231.170291)"><g><path d="M 8.390625 -3.5 C 8.453125 -3.4375 8.484375 -3.359375 8.484375 -3.265625 C 8.484375 -3.171875 8.453125 -3.085938 8.390625 -3.015625 C 8.359375 -2.984375 8.226562 -2.859375 8 -2.640625 C 7.769531 -2.429688 7.46875 -2.175781 7.09375 -1.875 C 6.71875 -1.582031 6.285156 -1.289062 5.796875 -1 C 5.316406 -0.707031 4.800781 -0.460938 4.25 -0.265625 C 3.707031 -0.0664062 3.160156 0.03125 2.609375 0.03125 C 1.816406 0.03125 1.109375 -0.203125 0.484375 -0.671875 C 0.222656 -0.859375 0.046875 -1.082031 -0.046875 -1.34375 C -0.140625 -1.601562 -0.179688 -1.867188 -0.171875 -2.140625 C -0.160156 -2.421875 -0.117188 -2.679688 -0.046875 -2.921875 C 0.015625 -3.160156 0.078125 -3.359375 0.140625 -3.515625 C 0.210938 -3.671875 0.253906 -3.757812 0.265625 -3.78125 C 0.316406 -3.851562 0.382812 -3.898438 0.46875 -3.921875 C 0.550781 -3.953125 0.632812 -3.945312 0.71875 -3.90625 C 0.800781 -3.863281 0.859375 -3.796875 0.890625 -3.703125 C 0.921875 -3.617188 0.910156 -3.539062 0.859375 -3.46875 C 0.859375 -3.457031 0.832031 -3.394531 0.78125 -3.28125 C 0.738281 -3.175781 0.6875 -3.03125 0.625 -2.84375 C 0.570312 -2.664062 0.535156 -2.472656 0.515625 -2.265625 C 0.492188 -2.066406 0.507812 -1.867188 0.5625 -1.671875 C 0.613281 -1.484375 0.71875 -1.332031 0.875 -1.21875 C 1.269531 -0.925781 1.691406 -0.75 2.140625 -0.6875 C 2.585938 -0.625 3.035156 -0.644531 3.484375 -0.75 C 3.929688 -0.863281 4.367188 -1.023438 4.796875 -1.234375 C 5.234375 -1.441406 5.632812 -1.671875 6 -1.921875 C 6.375 -2.179688 6.703125 -2.425781 6.984375 -2.65625 C 7.265625 -2.894531 7.484375 -3.09375 7.640625 -3.25 C 7.804688 -3.40625 7.894531 -3.488281 7.90625 -3.5 C 7.976562 -3.5625 8.054688 -3.59375 8.140625 -3.59375 C 8.234375 -3.59375 8.316406 -3.5625 8.390625 -3.5 Z M 0.109375 -4.515625 C -0.0546875 -4.515625 -0.160156 -4.601562 -0.203125 -4.78125 C -0.242188 -4.945312 -0.1875 -5.070312 -0.03125 -5.15625 C 0.207031 -5.28125 0.421875 -5.441406 0.609375 -5.640625 C 0.679688 -5.710938 0.757812 -5.75 0.84375 -5.75 C 0.9375 -5.75 1.019531 -5.71875 1.09375 -5.65625 C 1.15625 -5.582031 1.1875 -5.5 1.1875 -5.40625 C 1.195312 -5.320312 1.164062 -5.242188 1.09375 -5.171875 C 0.851562 -4.921875 0.582031 -4.71875 0.28125 -4.5625 C 0.226562 -4.53125 0.171875 -4.515625 0.109375 -4.515625 Z M 0.109375 -4.515625 "/></g></g></g><g fill="#e2ded0" fill-opacity="1"><g transform="translate(171.409512, 231.170291)"><g><path d="M 11.3125 -3.21875 C 11.375 -3.15625 11.40625 -3.078125 11.40625 -2.984375 C 11.414062 -2.890625 11.390625 -2.8125 11.328125 -2.75 C 11.304688 -2.71875 11.207031 -2.617188 11.03125 -2.453125 C 10.863281 -2.285156 10.628906 -2.082031 10.328125 -1.84375 C 10.035156 -1.601562 9.695312 -1.363281 9.3125 -1.125 C 8.925781 -0.894531 8.507812 -0.695312 8.0625 -0.53125 C 7.613281 -0.363281 7.148438 -0.265625 6.671875 -0.234375 C 6.191406 -0.210938 5.710938 -0.300781 5.234375 -0.5 C 4.554688 -0.84375 4.03125 -1.34375 3.65625 -2 C 3.601562 -2.0625 3.53125 -2.164062 3.4375 -2.3125 C 3.34375 -2.457031 3.210938 -2.523438 3.046875 -2.515625 C 2.972656 -2.515625 2.859375 -2.488281 2.703125 -2.4375 C 2.554688 -2.394531 2.363281 -2.300781 2.125 -2.15625 C 1.882812 -2.019531 1.601562 -1.800781 1.28125 -1.5 C 0.957031 -1.195312 0.570312 -0.789062 0.125 -0.28125 C 0.0195312 -0.15625 -0.113281 -0.128906 -0.28125 -0.203125 C -0.4375 -0.285156 -0.492188 -0.410156 -0.453125 -0.578125 L 0.1875 -3.421875 C 0.207031 -3.515625 0.257812 -3.585938 0.34375 -3.640625 C 0.425781 -3.691406 0.507812 -3.703125 0.59375 -3.671875 C 0.6875 -3.648438 0.753906 -3.597656 0.796875 -3.515625 C 0.847656 -3.441406 0.867188 -3.359375 0.859375 -3.265625 L 0.5625 -2 C 0.550781 -1.945312 0.566406 -1.910156 0.609375 -1.890625 C 0.648438 -1.867188 0.6875 -1.878906 0.71875 -1.921875 C 1.675781 -2.816406 2.484375 -3.242188 3.140625 -3.203125 C 3.421875 -3.191406 3.65625 -3.082031 3.84375 -2.875 C 3.988281 -2.71875 4.117188 -2.550781 4.234375 -2.375 C 4.523438 -1.832031 4.9375 -1.421875 5.46875 -1.140625 C 5.882812 -0.960938 6.300781 -0.890625 6.71875 -0.921875 C 7.144531 -0.960938 7.554688 -1.0625 7.953125 -1.21875 C 8.347656 -1.375 8.71875 -1.5625 9.0625 -1.78125 C 9.414062 -2 9.722656 -2.210938 9.984375 -2.421875 C 10.242188 -2.640625 10.445312 -2.820312 10.59375 -2.96875 C 10.738281 -3.125 10.816406 -3.203125 10.828125 -3.203125 C 10.890625 -3.273438 10.96875 -3.3125 11.0625 -3.3125 C 11.15625 -3.3125 11.238281 -3.28125 11.3125 -3.21875 Z M 11.3125 -3.21875 "/></g></g></g><g fill="#e2ded0" fill-opacity="1"><g transform="translate(182.186782, 231.170291)"><g><path d="M 10.8125 -3.140625 C 10.875 -3.078125 10.90625 -2.992188 10.90625 -2.890625 C 10.894531 -2.796875 10.859375 -2.722656 10.796875 -2.671875 C 10.765625 -2.640625 10.632812 -2.53125 10.40625 -2.34375 C 10.175781 -2.15625 9.875 -1.929688 9.5 -1.671875 C 9.125 -1.410156 8.703125 -1.15625 8.234375 -0.90625 C 7.765625 -0.664062 7.269531 -0.472656 6.75 -0.328125 C 6.226562 -0.179688 5.707031 -0.125 5.1875 -0.15625 C 4.664062 -0.1875 4.164062 -0.359375 3.6875 -0.671875 C 3.320312 -0.898438 3.035156 -1.203125 2.828125 -1.578125 C 2.765625 -1.679688 2.664062 -1.738281 2.53125 -1.75 C 2.414062 -1.757812 2.320312 -1.710938 2.25 -1.609375 C 2.0625 -1.316406 1.851562 -1.039062 1.625 -0.78125 C 1.40625 -0.53125 1.175781 -0.328125 0.9375 -0.171875 C 0.707031 -0.0234375 0.484375 0.0507812 0.265625 0.0625 C 0.109375 0.0507812 -0.0351562 0.00390625 -0.171875 -0.078125 C -0.304688 -0.171875 -0.40625 -0.289062 -0.46875 -0.4375 C -0.726562 -1.082031 -0.6875 -1.710938 -0.34375 -2.328125 C -0.0625 -2.921875 0.332031 -3.425781 0.84375 -3.84375 C 1.363281 -4.257812 1.945312 -4.546875 2.59375 -4.703125 C 2.71875 -4.742188 2.820312 -4.71875 2.90625 -4.625 C 3 -4.519531 3.03125 -4.40625 3 -4.28125 C 2.957031 -4.15625 2.875 -4.078125 2.75 -4.046875 C 2.195312 -3.921875 1.707031 -3.679688 1.28125 -3.328125 C 0.851562 -2.984375 0.515625 -2.554688 0.265625 -2.046875 C 0.0234375 -1.628906 -0.015625 -1.195312 0.140625 -0.75 C 0.191406 -0.664062 0.234375 -0.625 0.265625 -0.625 C 0.335938 -0.570312 0.453125 -0.625 0.609375 -0.78125 C 0.765625 -0.9375 0.941406 -1.160156 1.140625 -1.453125 C 1.335938 -1.753906 1.53125 -2.082031 1.71875 -2.4375 C 1.914062 -2.789062 2.09375 -3.132812 2.25 -3.46875 C 2.320312 -3.625 2.441406 -3.6875 2.609375 -3.65625 C 2.773438 -3.632812 2.867188 -3.539062 2.890625 -3.375 C 2.890625 -3.363281 2.90625 -3.28125 2.9375 -3.125 C 2.976562 -2.96875 3.039062 -2.769531 3.125 -2.53125 C 3.21875 -2.300781 3.335938 -2.066406 3.484375 -1.828125 C 3.640625 -1.585938 3.832031 -1.390625 4.0625 -1.234375 C 4.457031 -0.972656 4.882812 -0.832031 5.34375 -0.8125 C 5.8125 -0.800781 6.273438 -0.867188 6.734375 -1.015625 C 7.203125 -1.171875 7.648438 -1.363281 8.078125 -1.59375 C 8.503906 -1.820312 8.882812 -2.054688 9.21875 -2.296875 C 9.5625 -2.546875 9.832031 -2.75 10.03125 -2.90625 C 10.226562 -3.070312 10.332031 -3.160156 10.34375 -3.171875 C 10.40625 -3.234375 10.484375 -3.257812 10.578125 -3.25 C 10.671875 -3.25 10.75 -3.210938 10.8125 -3.140625 Z M 10.8125 -3.140625 "/></g></g></g><g fill="#e2ded0" fill-opacity="1"><g transform="translate(192.640606, 231.170291)"><g/></g></g><g fill="#e2ded0" fill-opacity="1"><g transform="translate(197.453505, 231.170291)"><g><path d="M 16.875 -6.046875 C 17 -6.066406 17.101562 -6.023438 17.1875 -5.921875 C 17.28125 -5.816406 17.300781 -5.703125 17.25 -5.578125 C 17.195312 -5.453125 17.101562 -5.382812 16.96875 -5.375 C 16.613281 -5.320312 16.1875 -5.257812 15.6875 -5.1875 C 15.1875 -5.125 14.644531 -5.0625 14.0625 -5 C 13.914062 -4.976562 13.820312 -4.898438 13.78125 -4.765625 L 12.46875 -0.484375 C 12.445312 -0.390625 12.398438 -0.316406 12.328125 -0.265625 C 12.253906 -0.222656 12.171875 -0.210938 12.078125 -0.234375 C 11.992188 -0.253906 11.925781 -0.300781 11.875 -0.375 C 11.820312 -0.445312 11.800781 -0.523438 11.8125 -0.609375 C 11.988281 -1.898438 11.921875 -3.179688 11.609375 -4.453125 C 11.554688 -4.628906 11.4375 -4.707031 11.25 -4.6875 C 10.78125 -4.644531 10.296875 -4.597656 9.796875 -4.546875 C 9.304688 -4.503906 8.820312 -4.46875 8.34375 -4.4375 C 8.1875 -4.425781 8.085938 -4.347656 8.046875 -4.203125 L 6.96875 -0.34375 C 6.945312 -0.25 6.894531 -0.179688 6.8125 -0.140625 C 6.738281 -0.0976562 6.65625 -0.0859375 6.5625 -0.109375 C 6.476562 -0.140625 6.410156 -0.191406 6.359375 -0.265625 C 6.304688 -0.347656 6.296875 -0.4375 6.328125 -0.53125 L 7.265625 -3.953125 C 7.304688 -4.046875 7.289062 -4.140625 7.21875 -4.234375 C 7.144531 -4.328125 7.050781 -4.367188 6.9375 -4.359375 C 6.144531 -4.316406 5.390625 -4.296875 4.671875 -4.296875 C 3.960938 -4.304688 3.328125 -4.335938 2.765625 -4.390625 C 2.203125 -4.441406 1.738281 -4.53125 1.375 -4.65625 C 1.019531 -4.789062 0.796875 -4.957031 0.703125 -5.15625 C 0.535156 -5.539062 0.734375 -5.957031 1.296875 -6.40625 C 1.910156 -6.882812 2.601562 -7.296875 3.375 -7.640625 C 4.144531 -7.992188 4.945312 -8.242188 5.78125 -8.390625 C 6.613281 -8.535156 7.421875 -8.539062 8.203125 -8.40625 C 8.285156 -8.394531 8.363281 -8.410156 8.4375 -8.453125 C 8.507812 -8.492188 8.554688 -8.554688 8.578125 -8.640625 L 10.3125 -14.859375 C 10.34375 -14.992188 10.425781 -15.078125 10.5625 -15.109375 C 10.6875 -15.140625 10.789062 -15.109375 10.875 -15.015625 C 10.96875 -14.921875 11 -14.8125 10.96875 -14.6875 L 9.21875 -8.4375 C 9.207031 -8.351562 9.21875 -8.273438 9.25 -8.203125 C 9.28125 -8.128906 9.335938 -8.078125 9.421875 -8.046875 C 9.566406 -7.984375 9.707031 -7.914062 9.84375 -7.84375 C 10.757812 -7.34375 11.4375 -6.617188 11.875 -5.671875 C 11.9375 -5.523438 12.046875 -5.457031 12.203125 -5.46875 C 12.503906 -5.507812 12.804688 -5.546875 13.109375 -5.578125 C 13.253906 -5.597656 13.347656 -5.675781 13.390625 -5.8125 L 16.3125 -15.4375 C 16.34375 -15.519531 16.394531 -15.582031 16.46875 -15.625 C 16.550781 -15.664062 16.640625 -15.675781 16.734375 -15.65625 C 16.828125 -15.625 16.894531 -15.566406 16.9375 -15.484375 C 16.976562 -15.410156 16.988281 -15.328125 16.96875 -15.234375 L 14.203125 -6.171875 C 14.171875 -6.054688 14.191406 -5.953125 14.265625 -5.859375 C 14.347656 -5.765625 14.445312 -5.726562 14.5625 -5.75 C 14.9375 -5.789062 15.316406 -5.835938 15.703125 -5.890625 C 16.085938 -5.941406 16.476562 -5.992188 16.875 -6.046875 Z M 1.3125 -5.421875 C 1.382812 -5.273438 1.675781 -5.164062 2.1875 -5.09375 C 2.707031 -5.019531 3.40625 -4.984375 4.28125 -4.984375 C 5.164062 -4.984375 6.1875 -5.015625 7.34375 -5.078125 C 7.507812 -5.085938 7.613281 -5.164062 7.65625 -5.3125 L 8.21875 -7.34375 C 8.238281 -7.4375 8.222656 -7.523438 8.171875 -7.609375 C 8.117188 -7.691406 8.046875 -7.742188 7.953125 -7.765625 C 7.660156 -7.804688 7.367188 -7.828125 7.078125 -7.828125 C 6.097656 -7.796875 5.148438 -7.613281 4.234375 -7.28125 C 3.328125 -6.945312 2.488281 -6.476562 1.71875 -5.875 C 1.519531 -5.71875 1.398438 -5.601562 1.359375 -5.53125 C 1.328125 -5.457031 1.3125 -5.421875 1.3125 -5.421875 Z M 8.765625 -5.171875 C 9.398438 -5.210938 10.0625 -5.265625 10.75 -5.328125 C 10.875 -5.347656 10.960938 -5.414062 11.015625 -5.53125 C 11.066406 -5.632812 11.0625 -5.738281 11 -5.84375 C 10.625 -6.4375 10.128906 -6.90625 9.515625 -7.25 C 9.335938 -7.351562 9.15625 -7.4375 8.96875 -7.5 L 8.4375 -5.59375 C 8.40625 -5.476562 8.425781 -5.378906 8.5 -5.296875 C 8.570312 -5.203125 8.660156 -5.160156 8.765625 -5.171875 Z M 12.53125 -3.015625 L 12.96875 -4.40625 C 13 -4.519531 12.976562 -4.617188 12.90625 -4.703125 C 12.820312 -4.804688 12.722656 -4.847656 12.609375 -4.828125 L 12.59375 -4.828125 C 12.5 -4.816406 12.425781 -4.773438 12.375 -4.703125 C 12.3125 -4.617188 12.289062 -4.523438 12.3125 -4.421875 C 12.425781 -3.960938 12.5 -3.492188 12.53125 -3.015625 Z M 12.53125 -3.015625 "/></g></g></g><g fill="#e2ded0" fill-opacity="1"><g transform="translate(214.647975, 231.170291)"><g><path d="M 9.4375 -3.671875 C 9.507812 -3.609375 9.546875 -3.523438 9.546875 -3.421875 C 9.546875 -3.328125 9.507812 -3.253906 9.4375 -3.203125 C 8.882812 -2.648438 8.296875 -2.207031 7.671875 -1.875 C 7.054688 -1.550781 6.4375 -1.320312 5.8125 -1.1875 C 5.195312 -1.050781 4.609375 -0.988281 4.046875 -1 C 3.492188 -1.007812 3.007812 -1.078125 2.59375 -1.203125 C 2.539062 -1.222656 2.492188 -1.203125 2.453125 -1.140625 C 2.347656 -0.878906 2.179688 -0.671875 1.953125 -0.515625 C 1.722656 -0.359375 1.460938 -0.273438 1.171875 -0.265625 C 0.890625 -0.265625 0.628906 -0.335938 0.390625 -0.484375 C 0.0546875 -0.640625 -0.175781 -0.878906 -0.3125 -1.203125 C -0.445312 -1.523438 -0.457031 -1.863281 -0.34375 -2.21875 C -0.269531 -2.519531 -0.140625 -2.804688 0.046875 -3.078125 C 0.242188 -3.347656 0.460938 -3.566406 0.703125 -3.734375 C 0.941406 -3.910156 1.171875 -4 1.390625 -4 C 1.492188 -4 1.578125 -3.960938 1.640625 -3.890625 C 1.703125 -3.828125 1.734375 -3.742188 1.734375 -3.640625 C 1.734375 -3.554688 1.695312 -3.484375 1.625 -3.421875 C 1.5625 -3.359375 1.484375 -3.328125 1.390625 -3.328125 C 1.304688 -3.328125 1.1875 -3.265625 1.03125 -3.140625 C 0.882812 -3.023438 0.738281 -2.867188 0.59375 -2.671875 C 0.457031 -2.472656 0.359375 -2.265625 0.296875 -2.046875 C 0.222656 -1.859375 0.222656 -1.671875 0.296875 -1.484375 C 0.378906 -1.296875 0.515625 -1.164062 0.703125 -1.09375 C 0.859375 -0.96875 1.03125 -0.914062 1.21875 -0.9375 C 1.40625 -0.957031 1.5625 -1.039062 1.6875 -1.1875 C 1.726562 -1.238281 1.773438 -1.304688 1.828125 -1.390625 C 1.878906 -1.472656 1.863281 -1.539062 1.78125 -1.59375 C 1.539062 -1.75 1.390625 -1.96875 1.328125 -2.25 C 1.265625 -2.53125 1.3125 -2.796875 1.46875 -3.046875 C 1.675781 -3.398438 1.863281 -3.597656 2.03125 -3.640625 C 2.207031 -3.679688 2.359375 -3.664062 2.484375 -3.59375 C 2.660156 -3.5 2.769531 -3.3125 2.8125 -3.03125 C 2.851562 -2.75 2.847656 -2.453125 2.796875 -2.140625 C 2.773438 -2.054688 2.789062 -1.976562 2.84375 -1.90625 C 2.894531 -1.832031 2.960938 -1.785156 3.046875 -1.765625 C 3.765625 -1.648438 4.476562 -1.644531 5.1875 -1.75 C 5.90625 -1.863281 6.582031 -2.082031 7.21875 -2.40625 C 7.863281 -2.726562 8.445312 -3.148438 8.96875 -3.671875 C 9.03125 -3.742188 9.109375 -3.78125 9.203125 -3.78125 C 9.296875 -3.78125 9.375 -3.742188 9.4375 -3.671875 Z M 2.125 -2.21875 C 2.15625 -2.414062 2.160156 -2.625 2.140625 -2.84375 C 2.140625 -2.820312 2.128906 -2.800781 2.109375 -2.78125 C 2.085938 -2.757812 2.070312 -2.734375 2.0625 -2.703125 C 2.007812 -2.628906 1.984375 -2.539062 1.984375 -2.4375 C 1.992188 -2.34375 2.039062 -2.269531 2.125 -2.21875 Z M 2.125 -2.21875 "/></g></g></g><g fill="#e2ded0" fill-opacity="1"><g transform="translate(223.588061, 231.170291)"><g><path d="M 11.3125 -3.21875 C 11.375 -3.15625 11.40625 -3.078125 11.40625 -2.984375 C 11.414062 -2.890625 11.390625 -2.8125 11.328125 -2.75 C 11.304688 -2.71875 11.207031 -2.617188 11.03125 -2.453125 C 10.863281 -2.285156 10.628906 -2.082031 10.328125 -1.84375 C 10.035156 -1.601562 9.695312 -1.363281 9.3125 -1.125 C 8.925781 -0.894531 8.507812 -0.695312 8.0625 -0.53125 C 7.613281 -0.363281 7.148438 -0.265625 6.671875 -0.234375 C 6.191406 -0.210938 5.710938 -0.300781 5.234375 -0.5 C 4.554688 -0.84375 4.03125 -1.34375 3.65625 -2 C 3.601562 -2.0625 3.53125 -2.164062 3.4375 -2.3125 C 3.34375 -2.457031 3.210938 -2.523438 3.046875 -2.515625 C 2.972656 -2.515625 2.859375 -2.488281 2.703125 -2.4375 C 2.554688 -2.394531 2.363281 -2.300781 2.125 -2.15625 C 1.882812 -2.019531 1.601562 -1.800781 1.28125 -1.5 C 0.957031 -1.195312 0.570312 -0.789062 0.125 -0.28125 C 0.0195312 -0.15625 -0.113281 -0.128906 -0.28125 -0.203125 C -0.4375 -0.285156 -0.492188 -0.410156 -0.453125 -0.578125 L 0.1875 -3.421875 C 0.207031 -3.515625 0.257812 -3.585938 0.34375 -3.640625 C 0.425781 -3.691406 0.507812 -3.703125 0.59375 -3.671875 C 0.6875 -3.648438 0.753906 -3.597656 0.796875 -3.515625 C 0.847656 -3.441406 0.867188 -3.359375 0.859375 -3.265625 L 0.5625 -2 C 0.550781 -1.945312 0.566406 -1.910156 0.609375 -1.890625 C 0.648438 -1.867188 0.6875 -1.878906 0.71875 -1.921875 C 1.675781 -2.816406 2.484375 -3.242188 3.140625 -3.203125 C 3.421875 -3.191406 3.65625 -3.082031 3.84375 -2.875 C 3.988281 -2.71875 4.117188 -2.550781 4.234375 -2.375 C 4.523438 -1.832031 4.9375 -1.421875 5.46875 -1.140625 C 5.882812 -0.960938 6.300781 -0.890625 6.71875 -0.921875 C 7.144531 -0.960938 7.554688 -1.0625 7.953125 -1.21875 C 8.347656 -1.375 8.71875 -1.5625 9.0625 -1.78125 C 9.414062 -2 9.722656 -2.210938 9.984375 -2.421875 C 10.242188 -2.640625 10.445312 -2.820312 10.59375 -2.96875 C 10.738281 -3.125 10.816406 -3.203125 10.828125 -3.203125 C 10.890625 -3.273438 10.96875 -3.3125 11.0625 -3.3125 C 11.15625 -3.3125 11.238281 -3.28125 11.3125 -3.21875 Z M 11.3125 -3.21875 "/></g></g></g><g fill="#e2ded0" fill-opacity="1"><g transform="translate(234.365331, 231.170291)"><g><path d="M 10.625 -3.421875 C 10.6875 -3.347656 10.710938 -3.265625 10.703125 -3.171875 C 10.691406 -3.078125 10.648438 -3 10.578125 -2.9375 C 10.578125 -2.9375 10.5 -2.878906 10.34375 -2.765625 C 10.195312 -2.648438 9.992188 -2.515625 9.734375 -2.359375 C 9.484375 -2.203125 9.1875 -2.050781 8.84375 -1.90625 C 8.507812 -1.757812 8.144531 -1.648438 7.75 -1.578125 C 7.363281 -1.503906 6.957031 -1.492188 6.53125 -1.546875 C 6.113281 -1.597656 5.703125 -1.742188 5.296875 -1.984375 C 5.148438 -2.085938 5.003906 -2.070312 4.859375 -1.9375 C 4.617188 -1.695312 4.375 -1.441406 4.125 -1.171875 C 4.0625 -1.078125 4.050781 -0.972656 4.09375 -0.859375 C 4.269531 -0.398438 4.328125 0.0976562 4.265625 0.640625 C 4.203125 1.179688 4.0625 1.71875 3.84375 2.25 C 3.632812 2.789062 3.382812 3.296875 3.09375 3.765625 C 2.8125 4.234375 2.53125 4.617188 2.25 4.921875 C 2.03125 5.171875 1.769531 5.410156 1.46875 5.640625 C 1.175781 5.878906 0.890625 6 0.609375 6 C 0.546875 6 0.476562 5.992188 0.40625 5.984375 C 0.0625 5.898438 -0.148438 5.679688 -0.234375 5.328125 C -0.304688 5.015625 -0.265625 4.617188 -0.109375 4.140625 C 0.0351562 3.671875 0.265625 3.148438 0.578125 2.578125 C 0.898438 2.015625 1.265625 1.4375 1.671875 0.84375 C 2.085938 0.257812 2.515625 -0.289062 2.953125 -0.8125 C 3.015625 -0.894531 3.039062 -0.988281 3.03125 -1.09375 C 3.019531 -1.1875 2.972656 -1.257812 2.890625 -1.3125 C 2.484375 -1.59375 2.035156 -1.75 1.546875 -1.78125 C 1.347656 -1.8125 1.242188 -1.921875 1.234375 -2.109375 C 1.222656 -2.296875 1.304688 -2.410156 1.484375 -2.453125 C 1.847656 -2.546875 2.191406 -2.648438 2.515625 -2.765625 C 2.847656 -2.890625 3.125 -3.007812 3.34375 -3.125 C 3.5625 -3.238281 3.6875 -3.335938 3.71875 -3.421875 C 3.644531 -3.484375 3.5625 -3.535156 3.46875 -3.578125 C 3.195312 -3.710938 2.878906 -3.769531 2.515625 -3.75 C 2.148438 -3.726562 1.785156 -3.648438 1.421875 -3.515625 C 1.066406 -3.390625 0.765625 -3.234375 0.515625 -3.046875 C 0.441406 -2.984375 0.359375 -2.957031 0.265625 -2.96875 C 0.171875 -2.976562 0.09375 -3.023438 0.03125 -3.109375 C -0.0078125 -3.179688 -0.0234375 -3.265625 -0.015625 -3.359375 C -0.00390625 -3.453125 0.0351562 -3.523438 0.109375 -3.578125 C 0.410156 -3.816406 0.773438 -4.015625 1.203125 -4.171875 C 1.640625 -4.328125 2.082031 -4.410156 2.53125 -4.421875 C 2.988281 -4.441406 3.398438 -4.363281 3.765625 -4.1875 C 4.222656 -3.96875 4.4375 -3.691406 4.40625 -3.359375 C 4.382812 -3.171875 4.28125 -2.992188 4.09375 -2.828125 C 3.90625 -2.671875 3.679688 -2.523438 3.421875 -2.390625 C 3.304688 -2.335938 3.242188 -2.25 3.234375 -2.125 C 3.210938 -1.988281 3.253906 -1.882812 3.359375 -1.8125 L 3.375 -1.8125 C 3.445312 -1.75 3.523438 -1.722656 3.609375 -1.734375 C 3.703125 -1.742188 3.78125 -1.78125 3.84375 -1.84375 C 4.101562 -2.132812 4.347656 -2.390625 4.578125 -2.609375 C 4.710938 -2.710938 4.859375 -2.769531 5.015625 -2.78125 C 5.179688 -2.800781 5.335938 -2.765625 5.484375 -2.671875 C 5.898438 -2.378906 6.320312 -2.21875 6.75 -2.1875 C 7.1875 -2.15625 7.601562 -2.195312 8 -2.3125 C 8.40625 -2.4375 8.765625 -2.582031 9.078125 -2.75 C 9.398438 -2.925781 9.65625 -3.082031 9.84375 -3.21875 C 10.03125 -3.363281 10.128906 -3.441406 10.140625 -3.453125 C 10.210938 -3.515625 10.296875 -3.539062 10.390625 -3.53125 C 10.484375 -3.519531 10.5625 -3.484375 10.625 -3.421875 Z M 1.75 4.46875 C 2.0625 4.113281 2.351562 3.707031 2.625 3.25 C 2.90625 2.789062 3.128906 2.316406 3.296875 1.828125 C 3.472656 1.347656 3.570312 0.894531 3.59375 0.46875 C 3.601562 0.289062 3.523438 0.171875 3.359375 0.109375 C 3.203125 0.0546875 3.070312 0.0976562 2.96875 0.234375 C 2.582031 0.734375 2.222656 1.234375 1.890625 1.734375 C 1.566406 2.242188 1.285156 2.722656 1.046875 3.171875 C 0.816406 3.628906 0.640625 4.03125 0.515625 4.375 C 0.398438 4.71875 0.367188 4.976562 0.421875 5.15625 C 0.429688 5.25 0.484375 5.300781 0.578125 5.3125 C 0.648438 5.332031 0.785156 5.28125 0.984375 5.15625 C 1.191406 5.039062 1.445312 4.8125 1.75 4.46875 Z M 1.75 4.46875 "/></g></g></g><g fill="#e2ded0" fill-opacity="1"><g transform="translate(244.392197, 231.170291)"><g><path d="M 8.390625 -3.5 C 8.453125 -3.4375 8.484375 -3.359375 8.484375 -3.265625 C 8.484375 -3.171875 8.453125 -3.085938 8.390625 -3.015625 C 8.359375 -2.984375 8.226562 -2.859375 8 -2.640625 C 7.769531 -2.429688 7.46875 -2.175781 7.09375 -1.875 C 6.71875 -1.582031 6.285156 -1.289062 5.796875 -1 C 5.316406 -0.707031 4.800781 -0.460938 4.25 -0.265625 C 3.707031 -0.0664062 3.160156 0.03125 2.609375 0.03125 C 1.816406 0.03125 1.109375 -0.203125 0.484375 -0.671875 C 0.222656 -0.859375 0.046875 -1.082031 -0.046875 -1.34375 C -0.140625 -1.601562 -0.179688 -1.867188 -0.171875 -2.140625 C -0.160156 -2.421875 -0.117188 -2.679688 -0.046875 -2.921875 C 0.015625 -3.160156 0.078125 -3.359375 0.140625 -3.515625 C 0.210938 -3.671875 0.253906 -3.757812 0.265625 -3.78125 C 0.316406 -3.851562 0.382812 -3.898438 0.46875 -3.921875 C 0.550781 -3.953125 0.632812 -3.945312 0.71875 -3.90625 C 0.800781 -3.863281 0.859375 -3.796875 0.890625 -3.703125 C 0.921875 -3.617188 0.910156 -3.539062 0.859375 -3.46875 C 0.859375 -3.457031 0.832031 -3.394531 0.78125 -3.28125 C 0.738281 -3.175781 0.6875 -3.03125 0.625 -2.84375 C 0.570312 -2.664062 0.535156 -2.472656 0.515625 -2.265625 C 0.492188 -2.066406 0.507812 -1.867188 0.5625 -1.671875 C 0.613281 -1.484375 0.71875 -1.332031 0.875 -1.21875 C 1.269531 -0.925781 1.691406 -0.75 2.140625 -0.6875 C 2.585938 -0.625 3.035156 -0.644531 3.484375 -0.75 C 3.929688 -0.863281 4.367188 -1.023438 4.796875 -1.234375 C 5.234375 -1.441406 5.632812 -1.671875 6 -1.921875 C 6.375 -2.179688 6.703125 -2.425781 6.984375 -2.65625 C 7.265625 -2.894531 7.484375 -3.09375 7.640625 -3.25 C 7.804688 -3.40625 7.894531 -3.488281 7.90625 -3.5 C 7.976562 -3.5625 8.054688 -3.59375 8.140625 -3.59375 C 8.234375 -3.59375 8.316406 -3.5625 8.390625 -3.5 Z M 0.109375 -4.515625 C -0.0546875 -4.515625 -0.160156 -4.601562 -0.203125 -4.78125 C -0.242188 -4.945312 -0.1875 -5.070312 -0.03125 -5.15625 C 0.207031 -5.28125 0.421875 -5.441406 0.609375 -5.640625 C 0.679688 -5.710938 0.757812 -5.75 0.84375 -5.75 C 0.9375 -5.75 1.019531 -5.71875 1.09375 -5.65625 C 1.15625 -5.582031 1.1875 -5.5 1.1875 -5.40625 C 1.195312 -5.320312 1.164062 -5.242188 1.09375 -5.171875 C 0.851562 -4.921875 0.582031 -4.71875 0.28125 -4.5625 C 0.226562 -4.53125 0.171875 -4.515625 0.109375 -4.515625 Z M 0.109375 -4.515625 "/></g></g></g><g fill="#e2ded0" fill-opacity="1"><g transform="translate(252.336065, 231.170291)"><g><path d="M 10.6875 -3.0625 C 10.757812 -3 10.789062 -2.921875 10.78125 -2.828125 C 10.78125 -2.734375 10.742188 -2.65625 10.671875 -2.59375 C 10.203125 -2.132812 9.65625 -1.75 9.03125 -1.4375 C 8.414062 -1.125 7.769531 -0.875 7.09375 -0.6875 C 6.425781 -0.507812 5.769531 -0.390625 5.125 -0.328125 C 4.488281 -0.265625 3.90625 -0.253906 3.375 -0.296875 C 2.851562 -0.335938 2.4375 -0.425781 2.125 -0.5625 C 1.8125 -0.675781 1.601562 -0.816406 1.5 -0.984375 C 1.40625 -1.148438 1.351562 -1.300781 1.34375 -1.4375 C 1.34375 -1.457031 1.332031 -1.460938 1.3125 -1.453125 C 1.289062 -1.453125 1.265625 -1.4375 1.234375 -1.40625 C 0.816406 -1 0.441406 -0.550781 0.109375 -0.0625 C 0.015625 0.0703125 -0.113281 0.109375 -0.28125 0.046875 C -0.445312 -0.00390625 -0.519531 -0.117188 -0.5 -0.296875 C -0.414062 -1.242188 -0.316406 -2.203125 -0.203125 -3.171875 C -0.0859375 -4.148438 0.0507812 -5.085938 0.21875 -5.984375 C 0.382812 -6.878906 0.578125 -7.691406 0.796875 -8.421875 C 1.023438 -9.148438 1.285156 -9.742188 1.578125 -10.203125 C 1.878906 -10.660156 2.226562 -10.9375 2.625 -11.03125 C 2.800781 -11.101562 2.976562 -11.113281 3.15625 -11.0625 C 3.34375 -11.019531 3.5 -10.925781 3.625 -10.78125 C 3.769531 -10.570312 3.816406 -10.269531 3.765625 -9.875 C 3.722656 -9.476562 3.601562 -9.023438 3.40625 -8.515625 C 3.21875 -8.003906 2.992188 -7.472656 2.734375 -6.921875 C 2.472656 -6.367188 2.195312 -5.828125 1.90625 -5.296875 C 1.613281 -4.765625 1.335938 -4.28125 1.078125 -3.84375 C 0.828125 -3.414062 0.625 -3.078125 0.46875 -2.828125 C 0.445312 -2.804688 0.4375 -2.796875 0.4375 -2.796875 C 0.40625 -2.515625 0.375 -2.222656 0.34375 -1.921875 C 0.332031 -1.828125 0.363281 -1.765625 0.4375 -1.734375 C 0.519531 -1.691406 0.585938 -1.703125 0.640625 -1.765625 C 1.171875 -2.285156 1.675781 -2.6875 2.15625 -2.96875 C 2.632812 -3.257812 3.050781 -3.453125 3.40625 -3.546875 C 3.769531 -3.640625 4.019531 -3.664062 4.15625 -3.625 C 4.320312 -3.550781 4.40625 -3.425781 4.40625 -3.25 C 4.40625 -3.101562 4.335938 -2.992188 4.203125 -2.921875 C 4.078125 -2.859375 3.9375 -2.8125 3.78125 -2.78125 C 3.09375 -2.445312 2.628906 -2.164062 2.390625 -1.9375 C 2.148438 -1.707031 2.03125 -1.550781 2.03125 -1.46875 C 2.03125 -1.363281 2.144531 -1.265625 2.375 -1.171875 C 2.65625 -1.066406 3.035156 -0.992188 3.515625 -0.953125 C 4.003906 -0.921875 4.539062 -0.9375 5.125 -1 C 5.707031 -1.0625 6.304688 -1.175781 6.921875 -1.34375 C 7.546875 -1.519531 8.140625 -1.75 8.703125 -2.03125 C 9.273438 -2.3125 9.773438 -2.660156 10.203125 -3.078125 C 10.273438 -3.148438 10.359375 -3.179688 10.453125 -3.171875 C 10.546875 -3.171875 10.625 -3.132812 10.6875 -3.0625 Z M 2.78125 -10.375 C 2.632812 -10.34375 2.476562 -10.238281 2.3125 -10.0625 C 2.15625 -9.894531 1.988281 -9.625 1.8125 -9.25 C 1.644531 -8.875 1.476562 -8.367188 1.3125 -7.734375 C 1.144531 -7.109375 0.976562 -6.320312 0.8125 -5.375 C 0.800781 -5.28125 0.835938 -5.21875 0.921875 -5.1875 C 1.003906 -5.164062 1.066406 -5.191406 1.109375 -5.265625 C 1.628906 -6.191406 2.046875 -7.015625 2.359375 -7.734375 C 2.679688 -8.460938 2.898438 -9.050781 3.015625 -9.5 C 3.140625 -9.957031 3.160156 -10.25 3.078125 -10.375 C 3.054688 -10.394531 3.019531 -10.40625 2.96875 -10.40625 C 2.90625 -10.40625 2.84375 -10.394531 2.78125 -10.375 Z M 2.78125 -10.375 "/></g></g></g></svg>