<svg xmlns="http://www.w3.org/2000/svg" xmlns:xlink="http://www.w3.org/1999/xlink" width="500" zoomAndPan="magnify" viewBox="0 0 375 374.999991" height="500" preserveAspectRatio="xMidYMid meet" version="1.0"><defs><clipPath id="6ad0feddce"><path d="M 9 1 L 367 1 L 367 369.679688 L 9 369.679688 Z M 9 1 " clip-rule="nonzero"/></clipPath></defs><g clip-path="url(#6ad0feddce)"><path fill="#e2ded0" d="M 349.835938 328.941406 L 349.917969 328.941406 Z M 70.175781 18.488281 C 66.636719 18.488281 63.292969 20.089844 59.660156 23.273438 C 59.261719 23.648438 54.0625 28.582031 50.679688 31.800781 L 47.726562 34.59375 C 30.472656 50.722656 22.652344 79.753906 27.800781 108.570312 C 29.453125 117.875 32.128906 127.519531 35.746094 137.222656 C 53.980469 186.191406 88.59375 228.765625 114.425781 255.867188 C 140.140625 283.148438 180.808594 319.992188 228.722656 340.816406 C 238.226562 344.945312 247.710938 348.136719 256.910156 350.292969 C 285.410156 356.96875 314.824219 350.714844 331.839844 334.355469 L 334.675781 331.660156 C 337.96875 328.550781 343.109375 323.683594 343.855469 322.96875 C 354.453125 312.070312 349.15625 303.007812 327.902344 281.390625 L 322.585938 275.933594 C 309.125 261.960938 286.53125 238.566406 267.433594 240.847656 C 262.242188 241.460938 256.824219 245.25 251.085938 249.253906 C 245.390625 253.226562 239.503906 257.332031 232.445312 259.570312 C 213.488281 265.582031 194.265625 261.628906 178.292969 248.46875 C 168.742188 240.597656 159.023438 231.386719 150.199219 221.859375 C 141.269531 212.660156 132.601562 202.46875 125.261719 192.519531 C 112.980469 175.875 110.070312 156.46875 117.078125 137.855469 C 119.691406 130.921875 124.109375 125.265625 128.382812 119.792969 C 132.6875 114.277344 136.757812 109.070312 137.644531 103.917969 C 140.929688 84.921875 118.789062 61.164062 105.558594 46.964844 L 100.402344 41.367188 C 86.378906 26.027344 77.847656 18.488281 70.175781 18.488281 Z M 279.910156 369.820312 C 270.382812 369.820312 261.222656 368.660156 253.054688 366.746094 C 242.871094 364.367188 232.414062 360.851562 221.980469 356.320312 C 171.4375 334.355469 128.921875 295.894531 102.160156 267.5 C 75.265625 239.289062 39.136719 194.773438 19.90625 143.121094 C 15.933594 132.464844 12.992188 121.839844 11.15625 111.539062 C 6.28125 84.234375 10.292969 46.4375 36.183594 22.253906 L 39.039062 19.535156 C 42.644531 16.117188 48.25 10.792969 48.480469 10.59375 C 74.378906 -12.144531 97.550781 13.191406 112.875 29.964844 L 117.925781 35.441406 C 133.292969 51.933594 159.015625 79.539062 154.304688 106.796875 C 152.6875 116.125 146.855469 123.605469 141.707031 130.199219 C 138.050781 134.875 134.59375 139.296875 132.894531 143.816406 C 127.902344 157.066406 129.972656 170.441406 138.863281 182.484375 C 145.761719 191.828125 153.921875 201.417969 162.464844 210.230469 C 170.921875 219.359375 180.070312 228.019531 189.042969 235.425781 C 200.601562 244.953125 213.84375 247.722656 227.34375 243.460938 C 231.941406 241.992188 236.535156 238.789062 241.402344 235.390625 C 248.269531 230.605469 256.039062 225.167969 265.449219 224.0625 C 293 220.8125 319.113281 247.972656 334.757812 264.207031 L 339.960938 269.539062 C 355.882812 285.742188 379.953125 310.230469 355.882812 334.851562 C 355.507812 335.210938 349.859375 340.574219 346.292969 343.941406 L 343.542969 346.546875 C 325.738281 363.667969 301.878906 369.820312 279.910156 369.820312 " fill-opacity="1" fill-rule="nonzero"/></g><path stroke-linecap="butt" transform="matrix(-0.029976, -0.749401, 0.749401, -0.029976, 125.998501, 187.55735)" fill="none" stroke-linejoin="miter" d="M 0.00180207 1.998459 L 23.00445 2.001165 " stroke="#e2ded0" stroke-width="4" stroke-opacity="1" stroke-miterlimit="4"/></svg>