<svg xmlns="http://www.w3.org/2000/svg" xmlns:xlink="http://www.w3.org/1999/xlink" width="500" zoomAndPan="magnify" viewBox="0 0 375 374.999991" height="500" preserveAspectRatio="xMidYMid meet" version="1.0"><defs><clipPath id="6e39fe7ba5"><path d="M 6.558594 6.558594 L 368.808594 6.558594 L 368.808594 368.808594 L 6.558594 368.808594 Z M 6.558594 6.558594 " clip-rule="nonzero"/></clipPath></defs><g clip-path="url(#6e39fe7ba5)"><path fill="#e2ded0" d="M 70.792969 6.558594 L 303.988281 6.558594 C 321.796875 6.558594 337.90625 13.769531 349.566406 25.429688 C 361.226562 37.085938 368.433594 53.199219 368.433594 70.792969 L 368.433594 303.988281 C 368.433594 321.796875 361.226562 337.90625 349.566406 349.566406 C 337.90625 361.226562 321.796875 368.433594 303.988281 368.433594 L 70.792969 368.433594 C 53.199219 368.433594 37.085938 361.226562 25.429688 349.566406 C 13.769531 337.90625 6.558594 321.796875 6.558594 303.988281 L 6.558594 70.792969 C 6.558594 53.199219 13.769531 37.085938 25.429688 25.429688 C 37.085938 13.769531 53.199219 6.558594 70.792969 6.558594 Z M 303.988281 25.429688 L 70.792969 25.429688 C 58.285156 25.429688 47.050781 30.515625 38.785156 38.785156 C 30.515625 47.050781 25.429688 58.285156 25.429688 70.792969 L 25.429688 303.988281 C 25.429688 316.496094 30.515625 327.945312 38.785156 336.210938 C 47.050781 344.269531 58.285156 349.566406 70.792969 349.566406 L 303.988281 349.566406 C 316.496094 349.566406 327.945312 344.269531 336.210938 336.210938 C 344.269531 327.945312 349.566406 316.496094 349.566406 303.988281 L 349.566406 70.792969 C 349.566406 58.285156 344.269531 47.050781 336.210938 38.785156 C 327.945312 30.515625 316.496094 25.429688 303.988281 25.429688 Z M 303.988281 25.429688 " fill-opacity="1" fill-rule="nonzero"/></g><path fill="#e2ded0" d="M 72.703125 132.0625 L 107.683594 132.0625 C 111.710938 132.0625 115.3125 133.546875 117.859375 136.089844 C 120.613281 138.632812 122.519531 142.238281 122.519531 146.476562 L 122.519531 308.652344 C 122.519531 312.679688 120.613281 316.496094 117.859375 319.039062 C 115.3125 321.585938 111.710938 323.070312 107.683594 323.070312 L 72.703125 323.070312 C 68.675781 323.070312 65.070312 321.585938 62.527344 319.039062 C 59.558594 316.496094 57.863281 312.679688 57.863281 308.652344 L 57.863281 146.476562 C 57.863281 142.238281 59.558594 138.632812 62.527344 136.089844 C 65.070312 133.546875 68.675781 132.0625 72.703125 132.0625 Z M 103.652344 150.929688 L 76.730469 150.929688 L 76.730469 304.199219 L 103.652344 304.199219 Z M 103.652344 150.929688 " fill-opacity="1" fill-rule="nonzero"/><path fill="#e2ded0" d="M 161.105469 131.636719 L 196.082031 131.636719 C 200.113281 131.636719 203.714844 133.332031 206.257812 135.664062 C 209.226562 138.421875 210.921875 142.023438 210.921875 146.054688 L 210.921875 147.324219 C 218.554688 142.238281 227.246094 138.421875 236.152344 136.300781 C 248.445312 133.332031 261.378906 133.121094 273.25 135.878906 C 285.332031 138.84375 296.570312 145.203125 304.414062 155.167969 C 312.257812 164.707031 316.921875 177.640625 316.921875 193.75 L 316.921875 308.230469 C 316.921875 312.257812 315.226562 315.859375 312.46875 318.617188 C 309.925781 320.949219 306.320312 322.644531 302.292969 322.644531 L 267.101562 322.644531 C 263.285156 322.644531 259.683594 320.949219 256.925781 318.617188 C 254.171875 315.859375 252.472656 312.257812 252.472656 308.230469 L 252.472656 217.707031 C 252.472656 209.226562 247.597656 203.925781 241.449219 201.59375 C 238.695312 200.535156 235.515625 200.113281 232.546875 200.113281 C 229.367188 200.113281 226.1875 200.746094 223.21875 201.808594 C 216.222656 204.351562 210.921875 209.652344 210.921875 217.707031 L 210.921875 308.652344 C 210.921875 312.679688 209.226562 316.496094 206.257812 319.039062 C 203.714844 321.585938 200.113281 323.070312 196.082031 323.070312 L 161.105469 323.070312 C 157.078125 323.070312 153.472656 321.585938 150.929688 319.039062 C 148.171875 316.496094 146.265625 312.679688 146.265625 308.652344 L 146.265625 146.054688 C 146.265625 142.023438 148.171875 138.421875 150.929688 135.664062 C 153.472656 133.332031 157.078125 131.636719 161.105469 131.636719 Z M 192.054688 150.503906 L 165.132812 150.503906 L 165.132812 304.199219 L 192.054688 304.199219 L 192.054688 217.707031 C 192.054688 200.535156 202.867188 189.085938 216.859375 184 C 221.734375 182.304688 227.035156 181.457031 232.335938 181.242188 C 237.632812 181.242188 242.933594 182.09375 248.023438 184 C 261.164062 188.875 271.339844 199.898438 271.339844 217.707031 L 271.339844 303.777344 L 298.054688 303.777344 L 298.054688 193.75 C 298.054688 182.304688 294.875 173.398438 289.785156 167.039062 C 284.484375 160.46875 277.066406 156.230469 268.796875 154.109375 C 259.894531 151.988281 250.140625 152.199219 240.816406 154.53125 C 228.09375 157.710938 216.648438 164.496094 209.226562 174.671875 C 207.53125 177.214844 204.777344 178.699219 201.382812 178.699219 C 196.296875 178.699219 192.054688 174.460938 192.054688 169.371094 Z M 192.054688 150.503906 " fill-opacity="1" fill-rule="nonzero"/><path fill="#e2ded0" d="M 90.085938 51.714844 C 99.625 51.714844 108.316406 55.742188 114.464844 61.890625 C 120.613281 68.039062 124.429688 76.730469 124.429688 86.058594 C 124.429688 95.597656 120.613281 104.078125 114.464844 110.4375 C 108.316406 116.585938 99.625 120.402344 90.085938 120.402344 C 80.757812 120.402344 72.066406 116.585938 65.917969 110.4375 C 59.769531 104.078125 55.957031 95.597656 55.957031 86.058594 C 55.957031 76.730469 59.769531 68.039062 65.917969 61.890625 C 72.066406 55.742188 80.757812 51.714844 90.085938 51.714844 Z M 101.109375 75.246094 C 98.355469 72.492188 94.539062 70.792969 90.085938 70.792969 C 85.847656 70.792969 82.03125 72.492188 79.273438 75.246094 C 76.519531 78.003906 74.824219 81.820312 74.824219 86.058594 C 74.824219 90.296875 76.519531 94.324219 79.273438 97.082031 C 82.03125 99.839844 85.847656 101.535156 90.085938 101.535156 C 94.539062 101.535156 98.355469 99.839844 101.109375 97.082031 C 103.867188 94.324219 105.5625 90.296875 105.5625 86.058594 C 105.5625 81.820312 103.867188 78.003906 101.109375 75.246094 Z M 101.109375 75.246094 " fill-opacity="1" fill-rule="nonzero"/><path stroke-linecap="butt" transform="matrix(0.75, 0.000000000000000766, -0.000000000000000766, 0.75, 78.362066, 140.310341)" fill="none" stroke-linejoin="miter" d="M 0.00162066 1.99767 L 27.814122 1.99767 " stroke="#e2ded0" stroke-width="4" stroke-opacity="1" stroke-miterlimit="4"/></svg>