<svg xmlns="http://www.w3.org/2000/svg" xmlns:xlink="http://www.w3.org/1999/xlink" width="500" zoomAndPan="magnify" viewBox="0 0 375 374.999991" height="500" preserveAspectRatio="xMidYMid meet" version="1.0"><defs><clipPath id="0bfc29a5ab"><path d="M 4.742188 4.742188 L 369.992188 4.742188 L 369.992188 369.992188 L 4.742188 369.992188 Z M 4.742188 4.742188 " clip-rule="nonzero"/></clipPath></defs><g clip-path="url(#0bfc29a5ab)"><path fill="#e2ded0" d="M 187.417969 19.441406 C 94.707031 19.441406 19.285156 94.863281 19.285156 187.570312 C 19.285156 280.28125 94.707031 355.703125 187.417969 355.703125 C 280.125 355.703125 355.546875 280.28125 355.546875 187.570312 C 355.546875 94.859375 280.125 19.441406 187.417969 19.441406 Z M 187.417969 370.324219 C 86.644531 370.324219 4.664062 288.34375 4.664062 187.570312 C 4.664062 86.800781 86.644531 4.816406 187.417969 4.816406 C 288.1875 4.8125 370.171875 86.800781 370.171875 187.570312 C 370.171875 288.34375 288.1875 370.324219 187.417969 370.324219 " fill-opacity="1" fill-rule="nonzero"/></g><path fill="#e2ded0" d="M 85.792969 246.476562 L 289.023438 246.476562 L 289.023438 128.671875 L 85.792969 128.671875 Z M 296.34375 261.101562 L 78.488281 261.101562 C 74.453125 261.101562 71.1875 257.835938 71.1875 253.796875 L 71.1875 121.351562 C 71.1875 117.3125 74.453125 114.046875 78.488281 114.046875 L 296.34375 114.046875 C 300.382812 114.046875 303.648438 117.3125 303.648438 121.351562 L 303.648438 253.796875 C 303.648438 257.835938 300.382812 261.101562 296.34375 261.101562 " fill-opacity="1" fill-rule="nonzero"/><path fill="#e2ded0" d="M 187.417969 208.460938 C 185.902344 208.460938 184.386719 207.988281 183.09375 207.039062 L 74.167969 127.25 C 70.902344 124.867188 70.207031 120.292969 72.589844 117.042969 C 74.972656 113.777344 79.546875 113.070312 82.8125 115.464844 L 187.417969 192.085938 L 292.019531 115.464844 C 295.285156 113.070312 299.859375 113.777344 302.242188 117.042969 C 304.625 120.292969 303.929688 124.867188 300.664062 127.25 L 191.738281 207.039062 C 190.445312 207.988281 188.929688 208.460938 187.417969 208.460938 " fill-opacity="1" fill-rule="nonzero"/><path stroke-linecap="butt" transform="matrix(0.75, 0, 0, 0.75, 127.499996, 124.793092)" fill="none" stroke-linejoin="miter" d="M 0.00000516333 1.999836 L 160.000016 1.999836 " stroke="#e2ded0" stroke-width="4" stroke-opacity="1" stroke-miterlimit="4"/></svg>